<?xml version="1.0"?>
<svg xmlns="http://www.w3.org/2000/svg" id="Layer_1" enable-background="new 0 0 512 512" height="512px" viewBox="0 0 512 512" width="512px"><g><g><path d="m229.389 278.099c-3.829 1.581-5.652 5.965-4.072 9.794 5.144 12.465 17.188 20.52 30.684 20.52s25.54-8.054 30.684-20.52c1.58-3.829-.243-8.213-4.072-9.794-3.83-1.58-8.213.244-9.794 4.072-2.819 6.829-9.421 11.241-16.819 11.241s-14-4.413-16.817-11.241c-1.581-3.83-5.966-5.65-9.794-4.072z" data-original="#000000" class="active-path" data-old_color="#000000" fill="#FFFFFF"/><path d="m240.56 254.849c3.829 1.579 8.214-.242 9.794-4.071.946-2.292 3.162-3.772 5.646-3.772s4.7 1.48 5.646 3.772c1.194 2.893 3.989 4.64 6.936 4.64.953 0 1.923-.183 2.859-.569 3.829-1.581 5.651-5.965 4.071-9.794-3.272-7.926-10.931-13.048-19.511-13.048s-16.239 5.122-19.511 13.048c-1.582 3.829.241 8.214 4.07 9.794z" data-original="#000000" class="active-path" data-old_color="#000000" fill="#FFFFFF"/><path d="m379.563 393.483c-37.633-13.321-74.627-16.646-76.183-16.781-5.019 0-8.848-9.97-9.519-26.349 30.232-6.943 53.297-22.916 68.816-47.737 10.768-17.222 16.317-36.354 18.998-53.852 3.661 1.341 7.568 2.041 11.583 2.041 18.525 0 33.596-15.064 33.596-33.582 0-17.648-13.689-32.159-31.011-33.483 11.358-12.292 18.306-28.712 18.306-46.723 0-24.017-12.701-46.332-32.912-58.766 2.322-5.818 3.529-12.06 3.529-18.388 0-27.346-22.26-49.593-49.622-49.593-7.691 0-15.146 1.743-21.923 5.087-7.601-9.624-19.207-15.357-31.799-15.357-11.957 0-23.155 5.313-30.753 14.119-9.169-8.979-21.53-14.119-34.693-14.119-19.727 0-37.379 11.711-45.275 29.265-2.758-.585-5.581-.879-8.449-.879-22.363 0-40.557 18.184-40.557 40.535 0 6.935 1.769 13.683 5.08 19.65-17.415 11.757-27.925 31.264-27.925 52.707 0 16.362 6.207 31.302 16.39 42.593-16.91 1.732-30.145 16.053-30.145 33.406 0 18.517 15.071 33.582 33.596 33.582 4.039 0 7.969-.708 11.649-2.065 2.033 13.22 5.724 27.558 12.161 41.278 1.276 2.72 3.976 4.316 6.794 4.316 1.067 0 2.151-.229 3.181-.712 3.75-1.759 5.363-6.226 3.604-9.976-10.746-22.903-13.002-48.086-13.002-65.18v-16.611c6.141 1.975 12.686 3.043 19.476 3.043 23.082 0 43.876-12.212 55.15-31.754 10.256 5.821 21.781 8.862 33.79 8.862 12.366 0 24.19-3.212 34.653-9.357 12.386 20.448 34.7 33.25 59.029 33.25 8.339 0 16.336-1.487 23.742-4.208v16.777c0 20.906-3.289 51.086-18.957 76.145-18.54 29.65-50.153 44.684-93.962 44.684-34.752 0-61.96-9.496-80.867-28.225-2.942-2.916-7.691-2.893-10.606.05s-2.893 7.691.05 10.606c14.495 14.359 32.938 24.014 55.078 28.878-.911 15.372-5.56 26.046-11.033 26.046-1.556.135-38.55 3.46-76.183 16.781-51.896 18.369-79.326 47.081-79.326 83.032v27.981c0 4.142 3.358 7.5 7.5 7.5s7.5-3.358 7.5-7.5v-27.984c0-47.8 62.479-69.539 104.497-78.752 6.529 40.363 41.618 70.849 83.393 70.849 13.567 0 27.056-3.293 39.009-9.523 3.673-1.915 5.099-6.444 3.185-10.117s-6.445-5.101-10.117-3.185c-9.962 5.192-20.754 7.825-32.077 7.825-34.532 0-63.51-25.322-68.666-58.76 6.06-1.069 11.222-1.824 15.076-2.332 4.028 25.941 26.525 45.86 53.59 45.86 27.066 0 49.564-19.921 53.591-45.864 3.854.506 9.017 1.258 15.077 2.324-1.756 11.402-6.323 22.154-13.391 31.41-2.513 3.292-1.882 7.999 1.41 10.513 1.359 1.038 2.958 1.539 4.546 1.539 2.258 0 4.491-1.016 5.967-2.949 8.472-11.098 13.992-23.961 16.196-37.609 42.017 9.195 104.494 30.916 104.494 78.771v27.984c0 4.142 3.358 7.5 7.5 7.5s7.5-3.358 7.5-7.5v-27.984c-.002-35.952-27.433-64.663-79.329-83.033zm32.293-176.26c0 10.246-8.342 18.582-18.596 18.582-3.534 0-6.918-.979-9.841-2.808.358-5.143.499-10.007.499-14.478v-17.363c2.819-1.635 6.044-2.514 9.343-2.514 10.253 0 18.595 8.335 18.595 18.581zm-293.166 18.634c-10.254 0-18.596-8.335-18.596-18.582s8.342-18.582 18.596-18.582c3.316 0 6.558.888 9.387 2.54v17.285c0 4.386.139 9.267.507 14.498-2.935 1.85-6.338 2.841-9.894 2.841zm177.076-77.093c-.932-2.11-2.782-3.674-5.018-4.24-.609-.154-1.228-.23-1.842-.23-1.644 0-3.262.541-4.59 1.568-9.467 7.324-20.817 11.196-32.823 11.196-11.758 0-22.919-3.728-32.277-10.779-1.863-1.404-4.271-1.862-6.52-1.237-2.248.624-4.077 2.258-4.949 4.421-7.471 18.521-25.21 30.487-45.193 30.487-26.856 0-48.705-21.834-48.705-48.673 0-18.625 10.379-35.344 27.086-43.629 2.21-1.096 3.727-3.221 4.079-5.663.319-2.216-.38-4.455-1.866-6.102-4.163-4.675-6.454-10.697-6.454-16.962 0-14.08 11.465-25.535 25.557-25.535 3.51 0 6.908.696 10.097 2.069 1.998.859 4.269.81 6.227-.135 1.958-.946 3.409-2.694 3.978-4.793 4.072-15.03 17.816-25.527 33.423-25.527 11.8 0 22.677 5.92 29.096 15.836 1.486 2.296 4.107 3.604 6.834 3.405 2.729-.196 5.134-1.862 6.276-4.348 4.159-9.047 13.281-14.893 23.24-14.893 9.635 0 18.355 5.326 22.757 13.899.993 1.933 2.775 3.34 4.885 3.858 2.111.517 4.341.094 6.115-1.16 5.857-4.14 12.762-6.328 19.967-6.328 19.09 0 34.622 15.518 34.622 34.593 0 6.249-1.684 12.369-4.869 17.7-1.086 1.818-1.353 4.01-.735 6.036s2.063 3.695 3.979 4.597c18.836 8.865 31.007 28.029 31.007 48.821 0 29.739-24.213 53.933-53.976 53.933-21.38.001-40.774-12.633-49.408-32.185zm-39.766 264.616c-19.639 0-35.954-14.494-38.794-33.341 9.865-4.383 16.043-17.404 17.348-36.898 6.847.803 13.996 1.206 21.443 1.206 8.001 0 15.649-.458 22.939-1.373.417 8.655 1.562 15.695 3.469 21.375 3.061 9.119 7.874 13.544 12.399 15.618-2.811 18.882-19.141 33.413-38.804 33.413z" data-original="#000000" class="active-path" data-old_color="#000000" fill="#FFFFFF"/><path d="m145.607 474.73c-4.142 0-7.5 3.358-7.5 7.5v22.27c0 4.142 3.358 7.5 7.5 7.5s7.5-3.358 7.5-7.5v-22.27c0-4.142-3.357-7.5-7.5-7.5z" data-original="#000000" class="active-path" data-old_color="#000000" fill="#FFFFFF"/><path d="m366.387 474.73c-4.142 0-7.5 3.358-7.5 7.5v22.27c0 4.142 3.358 7.5 7.5 7.5s7.5-3.358 7.5-7.5v-22.27c0-4.142-3.358-7.5-7.5-7.5z" data-original="#000000" class="active-path" data-old_color="#000000" fill="#FFFFFF"/></g></g> </svg>
